<?xml version="1.0" encoding="UTF-8"?>
<svg xmlns="http://www.w3.org/2000/svg" xmlns:xlink="http://www.w3.org/1999/xlink" viewBox="0 0 664 88" version="1.1">
<defs>
<clipPath id="clip1">
  <path d="M 1.828125 0 L 243 0 L 243 62 L 1.828125 62 Z M 1.828125 0 "/>
</clipPath>
<clipPath id="clip2">
  <path d="M 624 9 L 662.199219 9 L 662.199219 54 L 624 54 Z M 624 9 "/>
</clipPath>
</defs>
<g id="surface1">
<path style=" stroke:none;fill-rule:nonzero;fill:rgb(0%,9.019608%,50.588235%);fill-opacity:1;" d="M 127.765625 83.867188 C 129.898438 83.867188 131.238281 82.371094 131.238281 80.753906 C 131.238281 78.796875 129.679688 78.203125 128.226562 77.699219 C 127 77.28125 125.832031 76.964844 125.832031 75.855469 C 125.832031 74.945312 126.582031 74.296875 127.722656 74.296875 C 128.6875 74.296875 129.40625 74.671875 129.914062 75.4375 L 131.050781 74.585938 C 130.257812 73.664062 129.277344 73.058594 127.722656 73.058594 C 125.820312 73.058594 124.40625 74.296875 124.40625 75.882812 C 124.40625 77.785156 125.933594 78.363281 127.359375 78.824219 C 128.628906 79.214844 129.796875 79.601562 129.796875 80.753906 C 129.796875 81.792969 128.976562 82.558594 127.75 82.558594 C 126.65625 82.558594 125.804688 82.023438 125.171875 81.042969 L 123.945312 81.996094 C 124.808594 83.132812 125.992188 83.867188 127.765625 83.867188 Z M 139.445312 83.898438 C 141.390625 83.898438 142.660156 83.003906 143.425781 81.503906 L 142.257812 80.886719 C 141.753906 81.980469 140.785156 82.671875 139.445312 82.671875 C 137.746094 82.671875 136.519531 81.578125 136.332031 79.976562 L 143.699219 79.976562 L 143.699219 79.402344 C 143.699219 76.863281 141.839844 75.121094 139.375 75.121094 C 136.867188 75.121094 134.992188 77.050781 134.992188 79.558594 C 134.992188 82.023438 136.75 83.898438 139.445312 83.898438 Z M 139.375 76.34375 C 141.003906 76.34375 142.054688 77.253906 142.300781 78.75 L 136.40625 78.75 C 136.722656 77.355469 137.875 76.34375 139.375 76.34375 Z M 147.625 83.722656 L 148.996094 83.722656 L 148.996094 78.984375 C 148.996094 77.3125 150.046875 76.332031 151.472656 76.332031 C 152.914062 76.332031 153.78125 77.222656 153.78125 78.609375 L 153.78125 83.722656 L 155.164062 83.722656 L 155.164062 78.867188 C 155.164062 77.265625 156.230469 76.332031 157.585938 76.332031 C 159.082031 76.332031 159.976562 77.3125 159.976562 78.738281 L 159.976562 83.722656 L 161.359375 83.722656 L 161.359375 78.75 C 161.359375 76.5625 160.078125 75.121094 157.699219 75.121094 C 156.316406 75.121094 155.222656 75.796875 154.660156 76.835938 C 154.183594 75.796875 153.175781 75.121094 151.675781 75.121094 C 150.464844 75.121094 149.542969 75.625 148.980469 76.476562 L 148.980469 75.292969 L 147.625 75.292969 Z M 170.015625 83.898438 C 172.363281 83.898438 174.28125 82.023438 174.28125 79.515625 C 174.28125 76.992188 172.394531 75.121094 170.015625 75.121094 C 168.820312 75.121094 167.59375 75.695312 166.917969 76.71875 L 166.917969 75.292969 L 165.578125 75.292969 L 165.578125 87.601562 L 166.917969 87.601562 L 166.917969 82.398438 C 167.566406 83.378906 168.761719 83.898438 170.015625 83.898438 Z M 169.886719 82.628906 C 168.097656 82.628906 166.800781 81.246094 166.800781 79.5 C 166.800781 77.773438 168.097656 76.375 169.886719 76.375 C 171.558594 76.375 172.914062 77.773438 172.914062 79.5 C 172.914062 81.246094 171.558594 82.628906 169.886719 82.628906 Z M 178.195312 83.722656 L 179.578125 83.722656 L 179.578125 81.410156 C 179.535156 80.257812 179.5625 79.0625 179.5625 78.976562 C 179.5625 77.324219 180.328125 76.632812 181.464844 76.632812 C 182.15625 76.632812 182.417969 76.789062 182.75 77.003906 L 183.324219 75.726562 C 182.90625 75.496094 182.417969 75.292969 181.683594 75.292969 C 180.671875 75.292969 179.96875 75.695312 179.550781 76.519531 L 179.550781 75.308594 L 178.195312 75.308594 Z M 190.554688 83.898438 C 192.5 83.898438 193.765625 83.003906 194.53125 81.503906 L 193.363281 80.886719 C 192.859375 81.980469 191.894531 82.671875 190.554688 82.671875 C 188.851562 82.671875 187.628906 81.578125 187.441406 79.976562 L 194.804688 79.976562 L 194.804688 79.402344 C 194.804688 76.863281 192.945312 75.121094 190.480469 75.121094 C 187.972656 75.121094 186.097656 77.050781 186.097656 79.558594 C 186.097656 82.023438 187.859375 83.898438 190.554688 83.898438 Z M 190.480469 76.34375 C 192.109375 76.34375 193.160156 77.253906 193.40625 78.75 L 187.511719 78.75 C 187.828125 77.355469 188.980469 76.34375 190.480469 76.34375 Z M 213.535156 83.898438 C 215.957031 83.898438 217.914062 81.980469 217.914062 79.515625 C 217.914062 77.035156 215.957031 75.121094 213.535156 75.121094 C 211.113281 75.121094 209.167969 77.035156 209.167969 79.515625 C 209.167969 81.980469 211.113281 83.898438 213.535156 83.898438 Z M 213.535156 82.628906 C 211.863281 82.628906 210.550781 81.230469 210.550781 79.515625 C 210.550781 77.785156 211.863281 76.386719 213.535156 76.386719 C 215.21875 76.386719 216.546875 77.785156 216.546875 79.515625 C 216.546875 81.230469 215.21875 82.628906 213.535156 82.628906 Z M 229.019531 83.722656 L 230.390625 83.722656 L 230.390625 78.984375 C 230.390625 77.3125 231.441406 76.332031 232.871094 76.332031 C 234.308594 76.332031 235.175781 77.222656 235.175781 78.609375 L 235.175781 83.722656 L 236.558594 83.722656 L 236.558594 78.867188 C 236.558594 77.265625 237.625 76.332031 238.980469 76.332031 C 240.480469 76.332031 241.371094 77.3125 241.371094 78.738281 L 241.371094 83.722656 L 242.757812 83.722656 L 242.757812 78.75 C 242.757812 76.5625 241.472656 75.121094 239.097656 75.121094 C 237.710938 75.121094 236.617188 75.796875 236.054688 76.835938 C 235.578125 75.796875 234.570312 75.121094 233.070312 75.121094 C 231.859375 75.121094 230.9375 75.625 230.375 76.476562 L 230.375 75.292969 L 229.019531 75.292969 Z M 251.09375 83.898438 C 253.039062 83.898438 254.308594 83.003906 255.070312 81.503906 L 253.902344 80.886719 C 253.398438 81.980469 252.433594 82.671875 251.09375 82.671875 C 249.394531 82.671875 248.167969 81.578125 247.980469 79.976562 L 255.347656 79.976562 L 255.347656 79.402344 C 255.347656 76.863281 253.484375 75.121094 251.023438 75.121094 C 248.515625 75.121094 246.640625 77.050781 246.640625 79.558594 C 246.640625 82.023438 248.398438 83.898438 251.09375 83.898438 Z M 251.023438 76.34375 C 252.648438 76.34375 253.703125 77.253906 253.949219 78.75 L 248.050781 78.75 C 248.371094 77.355469 249.523438 76.34375 251.023438 76.34375 Z M 259.289062 83.722656 L 260.671875 83.722656 L 260.671875 73.058594 L 259.289062 73.058594 Z M 265.003906 83.722656 L 266.386719 83.722656 L 266.386719 79.054688 C 266.386719 77.484375 267.496094 76.34375 268.949219 76.34375 C 270.609375 76.34375 271.414062 77.355469 271.414062 79.011719 L 271.414062 83.722656 L 272.8125 83.722656 L 272.8125 78.9375 C 272.8125 76.5625 271.414062 75.121094 269.210938 75.121094 C 267.941406 75.121094 266.949219 75.695312 266.355469 76.5625 L 266.355469 73.058594 L 265.003906 73.058594 Z M 281.050781 83.898438 C 283.472656 83.898438 285.433594 81.980469 285.433594 79.515625 C 285.433594 77.035156 283.472656 75.121094 281.050781 75.121094 C 278.628906 75.121094 276.683594 77.035156 276.683594 79.515625 C 276.683594 81.980469 278.628906 83.898438 281.050781 83.898438 Z M 281.050781 82.628906 C 279.378906 82.628906 278.066406 81.230469 278.066406 79.515625 C 278.066406 77.785156 279.378906 76.386719 281.050781 76.386719 C 282.734375 76.386719 284.0625 77.785156 284.0625 79.515625 C 284.0625 81.230469 282.734375 82.628906 281.050781 82.628906 Z M 289.359375 83.722656 L 290.742188 83.722656 L 290.742188 81.410156 C 290.699219 80.257812 290.726562 79.0625 290.726562 78.976562 C 290.726562 77.324219 291.492188 76.632812 292.628906 76.632812 C 293.320312 76.632812 293.582031 76.789062 293.914062 77.003906 L 294.488281 75.726562 C 294.070312 75.496094 293.582031 75.292969 292.847656 75.292969 C 291.839844 75.292969 291.132812 75.695312 290.714844 76.519531 L 290.714844 75.308594 L 289.359375 75.308594 Z M 312.917969 83.898438 C 314.863281 83.898438 316.132812 83.003906 316.894531 81.503906 L 315.726562 80.886719 C 315.222656 81.980469 314.257812 82.671875 312.917969 82.671875 C 311.214844 82.671875 309.992188 81.578125 309.804688 79.976562 L 317.167969 79.976562 L 317.167969 79.402344 C 317.167969 76.863281 315.308594 75.121094 312.847656 75.121094 C 310.339844 75.121094 308.464844 77.050781 308.464844 79.558594 C 308.464844 82.023438 310.222656 83.898438 312.917969 83.898438 Z M 312.847656 76.34375 C 314.472656 76.34375 315.527344 77.253906 315.769531 78.75 L 309.875 78.75 C 310.195312 77.355469 311.347656 76.34375 312.847656 76.34375 Z M 321.097656 83.722656 L 322.464844 83.722656 L 322.464844 78.984375 C 322.464844 77.3125 323.519531 76.332031 324.945312 76.332031 C 326.386719 76.332031 327.25 77.222656 327.25 78.609375 L 327.25 83.722656 L 328.632812 83.722656 L 328.632812 78.867188 C 328.632812 77.265625 329.699219 76.332031 331.054688 76.332031 C 332.554688 76.332031 333.449219 77.3125 333.449219 78.738281 L 333.449219 83.722656 L 334.832031 83.722656 L 334.832031 78.75 C 334.832031 76.5625 333.550781 75.121094 331.171875 75.121094 C 329.789062 75.121094 328.691406 75.796875 328.128906 76.835938 C 327.652344 75.796875 326.644531 75.121094 325.144531 75.121094 C 323.9375 75.121094 323.011719 75.625 322.453125 76.476562 L 322.453125 75.292969 L 321.097656 75.292969 Z M 349.292969 76.53125 L 350.765625 76.53125 L 350.765625 80.46875 C 350.765625 83.003906 351.429688 83.722656 353.890625 83.722656 L 354.09375 83.722656 L 354.09375 82.425781 C 352.421875 82.425781 352.121094 82.140625 352.121094 80.453125 L 352.121094 76.53125 L 354.09375 76.53125 L 354.09375 75.292969 L 352.121094 75.292969 L 352.121094 72.757812 L 350.765625 73.691406 L 350.765625 75.292969 L 349.292969 75.292969 Z M 361.84375 83.898438 C 363.789062 83.898438 365.054688 83.003906 365.820312 81.503906 L 364.648438 80.886719 C 364.144531 81.980469 363.179688 82.671875 361.84375 82.671875 C 360.140625 82.671875 358.914062 81.578125 358.726562 79.976562 L 366.09375 79.976562 L 366.09375 79.402344 C 366.09375 76.863281 364.234375 75.121094 361.769531 75.121094 C 359.261719 75.121094 357.386719 77.050781 357.386719 79.558594 C 357.386719 82.023438 359.144531 83.898438 361.84375 83.898438 Z M 361.769531 76.34375 C 363.398438 76.34375 364.449219 77.253906 364.695312 78.75 L 358.800781 78.75 C 359.117188 77.355469 360.273438 76.34375 361.769531 76.34375 Z M 374.113281 83.898438 C 376.074219 83.898438 377.484375 82.800781 378.132812 81.261719 L 376.878906 80.710938 C 376.421875 81.808594 375.484375 82.628906 374.140625 82.628906 C 372.367188 82.628906 371.070312 81.230469 371.070312 79.515625 C 371.070312 77.773438 372.367188 76.386719 374.097656 76.386719 C 375.367188 76.386719 376.332031 77.066406 376.835938 78.203125 L 378.0625 77.683594 C 377.445312 76.171875 375.960938 75.121094 374.113281 75.121094 C 371.632812 75.121094 369.6875 77.007812 369.6875 79.515625 C 369.6875 81.9375 371.574219 83.898438 374.113281 83.898438 Z M 381.902344 83.722656 L 383.273438 83.722656 L 383.273438 79.054688 C 383.273438 77.484375 384.382812 76.34375 385.851562 76.34375 C 387.511719 76.34375 388.316406 77.367188 388.316406 78.996094 L 388.316406 83.722656 L 389.699219 83.722656 L 389.699219 78.9375 C 389.699219 76.5625 388.316406 75.121094 386.113281 75.121094 C 384.84375 75.121094 383.835938 75.710938 383.257812 76.589844 L 383.257812 75.292969 L 381.902344 75.292969 Z M 397.9375 83.898438 C 400.359375 83.898438 402.320312 81.980469 402.320312 79.515625 C 402.320312 77.035156 400.359375 75.121094 397.9375 75.121094 C 395.515625 75.121094 393.566406 77.035156 393.566406 79.515625 C 393.566406 81.980469 395.515625 83.898438 397.9375 83.898438 Z M 397.9375 82.628906 C 396.265625 82.628906 394.953125 81.230469 394.953125 79.515625 C 394.953125 77.785156 396.265625 76.386719 397.9375 76.386719 C 399.625 76.386719 400.949219 77.785156 400.949219 79.515625 C 400.949219 81.230469 399.625 82.628906 397.9375 82.628906 Z M 406.261719 83.722656 L 407.644531 83.722656 L 407.644531 73.058594 L 406.261719 73.058594 Z M 415.925781 83.898438 C 418.347656 83.898438 420.304688 81.980469 420.304688 79.515625 C 420.304688 77.035156 418.347656 75.121094 415.925781 75.121094 C 413.503906 75.121094 411.558594 77.035156 411.558594 79.515625 C 411.558594 81.980469 413.503906 83.898438 415.925781 83.898438 Z M 415.925781 82.628906 C 414.253906 82.628906 412.941406 81.230469 412.941406 79.515625 C 412.941406 77.785156 414.253906 76.386719 415.925781 76.386719 C 417.609375 76.386719 418.9375 77.785156 418.9375 79.515625 C 418.9375 81.230469 417.609375 82.628906 415.925781 82.628906 Z M 428.269531 83.898438 C 428.859375 83.898438 429.4375 83.753906 429.996094 83.480469 C 430.574219 83.207031 431.035156 82.800781 431.367188 82.296875 L 431.367188 83.609375 C 431.367188 85.382812 430.242188 86.59375 428.429688 86.59375 C 426.855469 86.59375 426.132812 85.902344 425.53125 84.878906 L 424.320312 85.597656 C 425.113281 86.980469 426.351562 87.832031 428.414062 87.832031 C 430.976562 87.832031 432.738281 86.160156 432.738281 83.566406 L 432.738281 75.292969 L 431.367188 75.292969 L 431.367188 76.71875 C 430.691406 75.695312 429.464844 75.121094 428.269531 75.121094 C 425.875 75.121094 423.972656 76.992188 423.972656 79.515625 C 423.972656 82.023438 425.902344 83.898438 428.269531 83.898438 Z M 428.394531 82.628906 C 426.714844 82.628906 425.355469 81.246094 425.355469 79.5 C 425.355469 77.773438 426.714844 76.375 428.394531 76.375 C 430.125 76.375 431.46875 77.773438 431.46875 79.5 C 431.46875 81.246094 430.125 82.628906 428.394531 82.628906 Z M 436.980469 83.722656 L 438.363281 83.722656 L 438.363281 75.292969 L 436.980469 75.292969 Z M 436.695312 73.230469 C 436.695312 73.824219 437.050781 74.210938 437.675781 74.210938 C 438.304688 74.210938 438.667969 73.824219 438.667969 73.230469 C 438.667969 72.65625 438.304688 72.265625 437.675781 72.265625 C 437.078125 72.265625 436.695312 72.65625 436.695312 73.230469 Z M 446.554688 83.898438 C 447.148438 83.898438 447.726562 83.753906 448.285156 83.480469 C 448.867188 83.207031 449.328125 82.800781 449.65625 82.296875 L 449.65625 83.722656 L 451.011719 83.722656 L 451.011719 75.292969 L 449.65625 75.292969 L 449.65625 76.691406 C 448.980469 75.695312 447.753906 75.121094 446.554688 75.121094 C 444.164062 75.121094 442.261719 76.992188 442.261719 79.515625 C 442.261719 82.023438 444.195312 83.898438 446.554688 83.898438 Z M 446.6875 82.628906 C 445.003906 82.628906 443.648438 81.246094 443.648438 79.5 C 443.648438 77.773438 445.003906 76.375 446.6875 76.375 C 448.417969 76.375 449.757812 77.773438 449.757812 79.5 C 449.757812 81.246094 448.417969 82.628906 446.6875 82.628906 Z M 470.128906 83.898438 C 472.074219 83.898438 473.34375 83.003906 474.109375 81.503906 L 472.941406 80.886719 C 472.4375 81.980469 471.472656 82.671875 470.128906 82.671875 C 468.429688 82.671875 467.203125 81.578125 467.019531 79.976562 L 474.378906 79.976562 L 474.378906 79.402344 C 474.378906 76.863281 472.523438 75.121094 470.058594 75.121094 C 467.550781 75.121094 465.675781 77.050781 465.675781 79.558594 C 465.675781 82.023438 467.433594 83.898438 470.128906 83.898438 Z M 470.058594 76.34375 C 471.6875 76.34375 472.738281 77.253906 472.984375 78.75 L 467.089844 78.75 C 467.40625 77.355469 468.558594 76.34375 470.058594 76.34375 Z M 489.078125 83.722656 L 490.460938 83.722656 L 490.460938 75.292969 L 489.078125 75.292969 Z M 488.785156 73.230469 C 488.785156 73.824219 489.148438 74.210938 489.765625 74.210938 C 490.402344 74.210938 490.761719 73.824219 490.761719 73.230469 C 490.761719 72.65625 490.402344 72.265625 489.765625 72.265625 C 489.179688 72.265625 488.785156 72.65625 488.785156 73.230469 Z M 494.691406 83.722656 L 496.058594 83.722656 L 496.058594 79.054688 C 496.058594 77.484375 497.167969 76.34375 498.640625 76.34375 C 500.296875 76.34375 501.105469 77.367188 501.105469 78.996094 L 501.105469 83.722656 L 502.484375 83.722656 L 502.484375 78.9375 C 502.484375 76.5625 501.105469 75.121094 498.898438 75.121094 C 497.628906 75.121094 496.621094 75.710938 496.046875 76.589844 L 496.046875 75.292969 L 494.691406 75.292969 Z M 510.726562 83.898438 C 513.144531 83.898438 515.105469 81.980469 515.105469 79.515625 C 515.105469 77.035156 513.144531 75.121094 510.726562 75.121094 C 508.304688 75.121094 506.355469 77.035156 506.355469 79.515625 C 506.355469 81.980469 508.304688 83.898438 510.726562 83.898438 Z M 510.726562 82.628906 C 509.050781 82.628906 507.738281 81.230469 507.738281 79.515625 C 507.738281 77.785156 509.050781 76.386719 510.726562 76.386719 C 512.40625 76.386719 513.738281 77.785156 513.738281 79.515625 C 513.738281 81.230469 512.40625 82.628906 510.726562 82.628906 Z M 521.441406 83.722656 L 522.808594 83.722656 L 526.09375 75.292969 L 524.636719 75.292969 L 522.144531 81.9375 L 519.621094 75.292969 L 518.136719 75.292969 Z M 533.410156 83.898438 C 534 83.898438 534.574219 83.753906 535.140625 83.480469 C 535.714844 83.207031 536.179688 82.800781 536.507812 82.296875 L 536.507812 83.722656 L 537.863281 83.722656 L 537.863281 75.292969 L 536.507812 75.292969 L 536.507812 76.691406 C 535.828125 75.695312 534.609375 75.121094 533.410156 75.121094 C 531.015625 75.121094 529.113281 76.992188 529.113281 79.515625 C 529.113281 82.023438 531.042969 83.898438 533.410156 83.898438 Z M 533.539062 82.628906 C 531.851562 82.628906 530.496094 81.246094 530.496094 79.5 C 530.496094 77.773438 531.851562 76.375 533.539062 76.375 C 535.269531 76.375 536.609375 77.773438 536.609375 79.5 C 536.609375 81.246094 535.269531 82.628906 533.539062 82.628906 Z M 546.085938 87.113281 C 547.238281 87.113281 548.1875 86.507812 548.1875 85.640625 C 548.1875 84.964844 547.523438 84.472656 546.488281 84.488281 L 546.488281 83.882812 C 548.320312 83.78125 549.574219 82.746094 550.207031 81.261719 L 548.953125 80.710938 C 548.488281 81.808594 547.554688 82.628906 546.214844 82.628906 C 544.441406 82.628906 543.144531 81.230469 543.144531 79.515625 C 543.144531 77.773438 544.441406 76.386719 546.171875 76.386719 C 547.441406 76.386719 548.40625 77.066406 548.910156 78.203125 L 550.136719 77.683594 C 549.515625 76.171875 548.03125 75.121094 546.1875 75.121094 C 543.707031 75.121094 541.761719 77.007812 541.761719 79.515625 C 541.761719 81.722656 543.300781 83.535156 545.492188 83.839844 L 545.492188 85.195312 L 546.113281 85.195312 C 546.761719 85.195312 547.09375 85.351562 547.09375 85.683594 C 547.09375 86.015625 546.675781 86.246094 546.15625 86.246094 C 545.597656 86.246094 545.289062 86.03125 544.945312 85.742188 L 544.023438 86.304688 C 544.542969 86.78125 545.234375 87.113281 546.085938 87.113281 Z M 557.9375 83.898438 C 558.53125 83.898438 559.105469 83.753906 559.667969 83.480469 C 560.246094 83.207031 560.707031 82.800781 561.039062 82.296875 L 561.039062 83.722656 L 562.390625 83.722656 L 562.390625 75.292969 L 561.039062 75.292969 L 561.039062 76.691406 C 560.359375 75.695312 559.136719 75.121094 557.9375 75.121094 C 555.546875 75.121094 553.644531 76.992188 553.644531 79.515625 C 553.644531 82.023438 555.574219 83.898438 557.9375 83.898438 Z M 558.070312 82.628906 C 556.382812 82.628906 555.03125 81.246094 555.03125 79.5 C 555.03125 77.773438 556.382812 76.375 558.070312 76.375 C 559.800781 76.375 561.136719 77.773438 561.136719 79.5 C 561.136719 81.246094 559.800781 82.628906 558.070312 82.628906 Z M 556.570312 74.328125 C 556.570312 73.851562 556.742188 73.621094 557.074219 73.621094 C 557.347656 73.621094 557.539062 73.765625 557.808594 73.921875 C 558.171875 74.140625 558.558594 74.386719 559.121094 74.386719 C 560.089844 74.386719 560.578125 73.707031 560.578125 72.613281 L 559.625 72.613281 C 559.625 73.085938 559.453125 73.332031 559.105469 73.332031 C 558.804688 73.332031 558.53125 73.128906 558.226562 72.945312 C 557.894531 72.726562 557.550781 72.554688 557.074219 72.554688 C 556.195312 72.554688 555.632812 73.246094 555.632812 74.328125 Z M 570.65625 83.898438 C 573.078125 83.898438 575.039062 81.980469 575.039062 79.515625 C 575.039062 77.035156 573.078125 75.121094 570.65625 75.121094 C 568.238281 75.121094 566.292969 77.035156 566.292969 79.515625 C 566.292969 81.980469 568.238281 83.898438 570.65625 83.898438 Z M 570.65625 82.628906 C 568.988281 82.628906 567.675781 81.230469 567.675781 79.515625 C 567.675781 77.785156 568.988281 76.386719 570.65625 76.386719 C 572.34375 76.386719 573.671875 77.785156 573.671875 79.515625 C 573.671875 81.230469 572.34375 82.628906 570.65625 82.628906 Z M 578.652344 82.816406 C 578.652344 83.4375 579.039062 83.855469 579.691406 83.855469 C 580.363281 83.855469 580.753906 83.4375 580.753906 82.816406 C 580.753906 82.195312 580.363281 81.777344 579.691406 81.777344 C 579.066406 81.777344 578.652344 82.195312 578.652344 82.816406 Z M 578.652344 82.816406 "/>
<g clip-path="url(#clip1)" clip-rule="nonzero">
<path style=" stroke:none;fill-rule:evenodd;fill:rgb(0%,9.019608%,50.588235%);fill-opacity:1;" d="M 68.40625 61.742188 L 25.84375 61.742188 C 25.84375 61.742188 24.675781 61.875 22.773438 61.179688 C 16.335938 58.8125 2.183594 51.917969 1.996094 36.953125 C 1.972656 34.90625 1.570312 22.128906 19.574219 12.269531 C 21.488281 11.222656 32.667969 5.464844 48.042969 3.019531 C 49.613281 2.769531 57.410156 1.457031 73.773438 0.570312 L 242.679688 0.570312 L 236.859375 10.703125 L 67.828125 10.703125 C 67.828125 10.703125 63.261719 10.742188 60.855469 11.101562 C 58.445312 11.460938 50.066406 12.15625 42.148438 16.941406 C 40.070312 18.195312 32.375 22.976562 28.023438 30.273438 C 28.023438 30.273438 24.855469 35.058594 26.089844 40.804688 C 26.777344 43.996094 28.792969 47.84375 36.417969 49.808594 C 37.503906 50.089844 42.59375 50.582031 43.191406 50.527344 C 43.78125 50.472656 51.691406 50.632812 51.691406 50.632812 L 62.714844 31.917969 L 52.839844 31.992188 L 58.757812 21.882812 L 91.472656 21.882812 Z M 68.40625 61.742188 "/>
</g>
<path style=" stroke:none;fill-rule:evenodd;fill:rgb(0%,9.019608%,50.588235%);fill-opacity:1;" d="M 168.191406 14.980469 L 162.726562 14.980469 C 162.726562 14.980469 150.769531 14.886719 145.734375 15.238281 C 127.769531 16.484375 108.578125 21.480469 94.636719 33.59375 C 93.652344 34.449219 88.761719 38.222656 84.671875 46.257812 C 83.914062 47.738281 81.46875 53.878906 84.722656 61.5625 C 85.074219 62.390625 87.714844 69.300781 99.097656 77.277344 L 101.25 78.390625 L 107.894531 66.320312 C 107.894531 66.320312 108.410156 66.769531 107.894531 66.320312 C 106.605469 65.195312 104.222656 62.796875 103.398438 59.863281 C 103.144531 58.964844 102.664062 55.636719 104.449219 52.238281 C 104.839844 51.496094 105.210938 50.726562 105.707031 50.042969 L 126.199219 50.042969 L 119.445312 61.742188 L 141.195312 61.742188 L 159.097656 30.738281 L 137.34375 30.738281 L 133.015625 38.242188 L 113.246094 38.21875 C 113.246094 38.21875 117.503906 30.421875 133.804688 27.429688 C 135.246094 27.164062 141.105469 26.472656 146.210938 26.472656 L 161.542969 26.476562 Z M 168.191406 14.980469 "/>
<path style=" stroke:none;fill-rule:evenodd;fill:rgb(0%,9.019608%,50.588235%);fill-opacity:1;" d="M 174.527344 14.984375 L 168.328125 26.253906 L 194.296875 26.253906 L 147.527344 61.742188 L 207.378906 61.742188 L 214.117188 50.074219 L 188.003906 50.074219 L 234.375 14.984375 Z M 174.527344 14.984375 "/>
<path style=" stroke:none;fill-rule:evenodd;fill:rgb(0%,9.019608%,50.588235%);fill-opacity:1;" d="M 244.9375 14.984375 L 218.214844 61.753906 L 244.722656 61.753906 L 271.550781 14.984375 Z M 244.9375 14.984375 "/>
<path style=" stroke:none;fill-rule:evenodd;fill:rgb(0%,9.019608%,50.588235%);fill-opacity:1;" d="M 273.917969 10.675781 L 247.4375 10.675781 L 253.308594 0.578125 L 279.832031 0.578125 Z M 273.917969 10.675781 "/>
<path style=" stroke:none;fill-rule:evenodd;fill:rgb(0%,9.019608%,50.588235%);fill-opacity:1;" d="M 356.105469 0.578125 L 350.257812 10.707031 L 284.957031 10.707031 L 290.804688 0.578125 Z M 356.105469 0.578125 "/>
<path style=" stroke:none;fill-rule:evenodd;fill:rgb(0%,9.019608%,50.588235%);fill-opacity:1;" d="M 282.476562 14.984375 L 255.5 61.742188 L 278.585938 61.742188 L 296.59375 30.550781 L 303.359375 48.949219 L 295.972656 61.742188 L 320.796875 61.742188 L 347.796875 14.984375 L 322.976562 14.984375 L 313.957031 30.589844 L 308.796875 14.984375 Z M 282.476562 14.984375 "/>
<path style=" stroke:none;fill-rule:nonzero;fill:rgb(0.392157%,49.019608%,77.254902%);fill-opacity:1;" d="M 386.226562 62.066406 L 397.605469 62.066406 L 425.894531 10.992188 L 442.292969 10.992188 L 447.804688 1 L 403.722656 1 L 398.207031 10.992188 L 414.519531 10.992188 Z M 425.699219 62.066406 L 461.921875 62.066406 L 467.941406 51.191406 L 443.097656 51.191406 L 451.0625 36.800781 L 475.90625 36.800781 L 481.929688 25.925781 L 457.082031 25.925781 L 465.585938 10.621094 L 490.433594 10.621094 L 495.726562 1 L 459.511719 1 Z M 503.527344 62.902344 C 515.574219 62.902344 529.757812 55.875 540.851562 45.503906 L 533.488281 40.066406 C 526.523438 46.757812 518.027344 51.527344 509.574219 51.527344 C 498.199219 51.527344 494.660156 42.65625 500.820312 31.53125 C 507.117188 20.15625 520.425781 11.371094 532.058594 11.371094 C 540.003906 11.371094 543.097656 15.304688 543.175781 21.660156 L 556.648438 15.304688 C 556.339844 6.183594 549.722656 0.164062 538.261719 0.164062 C 520.613281 0.164062 499.621094 13.296875 489.527344 31.53125 C 479.890625 48.933594 484.707031 62.902344 503.527344 62.902344 Z M 576.847656 62.066406 L 588.222656 62.066406 L 622.027344 1 L 610.652344 1 L 596.804688 26.011719 L 573.382812 26.011719 L 587.226562 1 L 575.851562 1 L 542.046875 62.066406 L 553.421875 62.066406 L 567.359375 36.886719 L 590.78125 36.886719 Z M 576.847656 62.066406 "/>
<path style=" stroke:none;fill-rule:evenodd;fill:rgb(0%,9.019608%,50.588235%);fill-opacity:1;" d="M 346.226562 33.832031 L 384.011719 53.296875 L 384.011719 45.945312 L 354.605469 31.203125 L 384.011719 16.460938 L 384.011719 9.109375 L 346.226562 28.574219 Z M 346.226562 33.832031 "/>
<g clip-path="url(#clip2)" clip-rule="nonzero">
<path style=" stroke:none;fill-rule:evenodd;fill:rgb(0%,9.019608%,50.588235%);fill-opacity:1;" d="M 624.289062 9.113281 L 624.289062 16.464844 L 653.910156 31.207031 L 624.289062 45.949219 L 624.289062 53.300781 L 662.070312 33.914062 L 662.070312 28.5 Z M 624.289062 9.113281 "/>
</g>
</g>
</svg>
